# xmcd
#
# Track frame offsets:
#	150
#	11494
#	22399
#	42109
#	54637
#	64804
#	78161
#	91239
#	106797
#	120210
#	132536
#	146165
#	159668
#	178904
#
# Disc length: 2614 seconds
#
# Revision: 0
# Processed by: cddbd v1.5.1PL2 Copyright (c) Steve Scherf et al.
# Submitted via: dBpowerAMP V4.0
#
DISCID=bb0a340e
DTITLE=Dale Hooper - You Asked For It
DYEAR=2004
DGENRE=Country
TTITLE0=Ravishing Ruby
TTITLE1=Pure Love
TTITLE2=I Can't Stop Loving You
TTITLE3=Crazy
TTITLE4=From A Jack To A King
TTITLE5=Liberty Valance
TTITLE6=In The Ghetto
TTITLE7=If I Said You Had A Beautiful Body
TTITLE8=I Overlooked An Orchid
TTITLE9=Lucky Lips
TTITLE10=You'll Never Walk Alone
TTITLE11=Mountain Of Love
TTITLE12=Honey
TTITLE13=You Had Me From Hello
EXTD=
EXTT0=
EXTT1=
EXTT2=
EXTT3=
EXTT4=
EXTT5=
EXTT6=
EXTT7=
EXTT8=
EXTT9=
EXTT10=
EXTT11=
EXTT12=
EXTT13=
PLAYORDER=
